<mxfile host="app.diagrams.net" agent="Mozilla/5.0 (Windows NT 10.0; Win64; x64) AppleWebKit/537.36 (KHTML, like Gecko) Chrome/141.0.0.0 Safari/537.36" version="28.2.7">
  <diagram name="Página-1" id="NPhaZSazHL23P4FKyXXb">
    <mxGraphModel dx="2066" dy="1111" grid="1" gridSize="10" guides="1" tooltips="1" connect="1" arrows="1" fold="1" page="1" pageScale="1" pageWidth="1600" pageHeight="900" math="0" shadow="0">
      <root>
        <mxCell id="0" />
        <mxCell id="1" parent="0" />
        <mxCell id="nNpbT5HRwSoIDKoTZXaV-1" value="Rede social" style="swimlane;whiteSpace=wrap;html=1;" vertex="1" parent="1">
          <mxGeometry x="510" y="70" width="580" height="610" as="geometry" />
        </mxCell>
        <mxCell id="nNpbT5HRwSoIDKoTZXaV-3" value="Fazer upload de música" style="ellipse;whiteSpace=wrap;html=1;" vertex="1" parent="nNpbT5HRwSoIDKoTZXaV-1">
          <mxGeometry x="30" y="345" width="150" height="80" as="geometry" />
        </mxCell>
        <mxCell id="nNpbT5HRwSoIDKoTZXaV-7" value="Monetizar músicas" style="ellipse;whiteSpace=wrap;html=1;" vertex="1" parent="nNpbT5HRwSoIDKoTZXaV-1">
          <mxGeometry x="200" y="200" width="150" height="80" as="geometry" />
        </mxCell>
        <mxCell id="nNpbT5HRwSoIDKoTZXaV-8" value="Receber doações" style="ellipse;whiteSpace=wrap;html=1;" vertex="1" parent="nNpbT5HRwSoIDKoTZXaV-1">
          <mxGeometry x="170" y="470" width="150" height="80" as="geometry" />
        </mxCell>
        <mxCell id="nNpbT5HRwSoIDKoTZXaV-10" value="Receber pagamento" style="ellipse;whiteSpace=wrap;html=1;" vertex="1" parent="nNpbT5HRwSoIDKoTZXaV-1">
          <mxGeometry x="330" y="345" width="150" height="80" as="geometry" />
        </mxCell>
        <mxCell id="nNpbT5HRwSoIDKoTZXaV-11" value="Include" style="endArrow=classicThin;endSize=16;endFill=1;html=1;rounded=0;dashed=1;entryX=0.2;entryY=0.063;entryDx=0;entryDy=0;entryPerimeter=0;" edge="1" parent="nNpbT5HRwSoIDKoTZXaV-1" source="nNpbT5HRwSoIDKoTZXaV-7" target="nNpbT5HRwSoIDKoTZXaV-10">
          <mxGeometry width="160" relative="1" as="geometry">
            <mxPoint x="343" y="280" as="sourcePoint" />
            <mxPoint x="250" y="352" as="targetPoint" />
          </mxGeometry>
        </mxCell>
        <mxCell id="nNpbT5HRwSoIDKoTZXaV-17" value="Extends" style="endArrow=classicThin;endSize=16;endFill=1;html=1;rounded=0;dashed=1;exitX=0.293;exitY=0.925;exitDx=0;exitDy=0;exitPerimeter=0;" edge="1" parent="nNpbT5HRwSoIDKoTZXaV-1" source="nNpbT5HRwSoIDKoTZXaV-10">
          <mxGeometry width="160" relative="1" as="geometry">
            <mxPoint x="393" y="410" as="sourcePoint" />
            <mxPoint x="300" y="482" as="targetPoint" />
          </mxGeometry>
        </mxCell>
        <mxCell id="nNpbT5HRwSoIDKoTZXaV-18" value="Ver mensagens de fãs" style="ellipse;whiteSpace=wrap;html=1;" vertex="1" parent="nNpbT5HRwSoIDKoTZXaV-1">
          <mxGeometry x="30" y="120" width="150" height="80" as="geometry" />
        </mxCell>
        <mxCell id="nNpbT5HRwSoIDKoTZXaV-2" value="Artista" style="shape=umlActor;verticalLabelPosition=bottom;verticalAlign=top;html=1;outlineConnect=0;" vertex="1" parent="1">
          <mxGeometry x="390" y="420" width="30" height="60" as="geometry" />
        </mxCell>
        <mxCell id="nNpbT5HRwSoIDKoTZXaV-4" value="" style="endArrow=none;html=1;rounded=0;entryX=0;entryY=0.5;entryDx=0;entryDy=0;exitX=1;exitY=0.3333333333333333;exitDx=0;exitDy=0;exitPerimeter=0;" edge="1" parent="1" source="nNpbT5HRwSoIDKoTZXaV-2" target="nNpbT5HRwSoIDKoTZXaV-3">
          <mxGeometry width="50" height="50" relative="1" as="geometry">
            <mxPoint x="420" y="460" as="sourcePoint" />
            <mxPoint x="470" y="410" as="targetPoint" />
          </mxGeometry>
        </mxCell>
        <mxCell id="nNpbT5HRwSoIDKoTZXaV-6" value="Extends" style="endArrow=classicThin;endSize=16;endFill=1;html=1;rounded=0;dashed=1;" edge="1" parent="1" target="nNpbT5HRwSoIDKoTZXaV-3">
          <mxGeometry width="160" relative="1" as="geometry">
            <mxPoint x="750" y="350" as="sourcePoint" />
            <mxPoint x="880" y="370" as="targetPoint" />
          </mxGeometry>
        </mxCell>
        <mxCell id="nNpbT5HRwSoIDKoTZXaV-12" value="Plataforma de pagamentos" style="shape=umlActor;verticalLabelPosition=bottom;verticalAlign=top;html=1;" vertex="1" parent="1">
          <mxGeometry x="1170" y="425" width="30" height="60" as="geometry" />
        </mxCell>
        <mxCell id="nNpbT5HRwSoIDKoTZXaV-14" style="edgeStyle=orthogonalEdgeStyle;rounded=0;orthogonalLoop=1;jettySize=auto;html=1;endArrow=none;endFill=0;" edge="1" parent="1" source="nNpbT5HRwSoIDKoTZXaV-10">
          <mxGeometry relative="1" as="geometry">
            <mxPoint x="1150" y="455" as="targetPoint" />
          </mxGeometry>
        </mxCell>
        <mxCell id="nNpbT5HRwSoIDKoTZXaV-9" value="" style="endArrow=none;html=1;rounded=0;entryX=0;entryY=0.5;entryDx=0;entryDy=0;" edge="1" parent="1" source="nNpbT5HRwSoIDKoTZXaV-2" target="nNpbT5HRwSoIDKoTZXaV-8">
          <mxGeometry width="50" height="50" relative="1" as="geometry">
            <mxPoint x="420" y="582.5" as="sourcePoint" />
            <mxPoint x="540" y="577.5" as="targetPoint" />
          </mxGeometry>
        </mxCell>
        <mxCell id="nNpbT5HRwSoIDKoTZXaV-19" style="edgeStyle=orthogonalEdgeStyle;rounded=0;orthogonalLoop=1;jettySize=auto;html=1;endArrow=none;endFill=0;" edge="1" parent="1" source="nNpbT5HRwSoIDKoTZXaV-18">
          <mxGeometry relative="1" as="geometry">
            <mxPoint x="405" y="400" as="targetPoint" />
          </mxGeometry>
        </mxCell>
      </root>
    </mxGraphModel>
  </diagram>
</mxfile>
